# 3ds Max Wavefront OBJ Exporter v0.99 - (c)2007 guruware
# File Created: 08.11.2024 00:08:42

mtllib wall piece small 1.mtl

#
# object Floor_2
#

v  -5295.6411 0.0000 -557.0972
v  -5295.6411 0.0000 -431.7409
v  -5392.0596 0.0000 -431.7409
v  -5392.0596 0.0000 -557.0972
v  -5325.3193 97.9792 -338.4689
v  -5325.3193 97.9792 -399.6566
v  -5362.3813 97.9792 -399.6566
v  -5362.3813 97.9792 -338.4689
v  -5392.0596 0.0000 -269.9908
v  -5295.6411 0.0000 -269.9908
v  -5295.6411 93.9005 -269.9908
v  -5392.0596 93.9005 -269.9908
v  -5171.2305 0.0000 -306.3846
v  -5171.2305 0.0000 -431.7409
v  -5171.2305 93.9005 -431.7409
v  -5171.2305 93.9005 -306.3846
v  -5199.2227 0.0000 -593.4909
v  -5295.6411 0.0000 -593.4909
v  -5295.6411 93.9005 -593.4909
v  -5199.2227 93.9005 -593.4909
v  -5420.0518 0.0000 -557.0972
v  -5420.0518 0.0000 -431.7409
v  -5420.0518 93.9005 -431.7409
v  -5420.0518 93.9005 -557.0972
v  -5171.2305 0.0000 -557.0972
v  -5185.2266 0.0000 -431.7409
v  -5185.2266 0.0000 -557.0972
v  -5199.2227 0.0000 -557.0972
v  -5199.2227 0.0000 -431.7409
v  -5420.0518 0.0000 -306.3846
v  -5406.0557 0.0000 -431.7409
v  -5406.0557 0.0000 -306.3846
v  -5189.4951 93.9005 -431.4160
v  -5189.4951 93.9005 -310.6033
v  -5228.9009 97.9792 -338.4689
v  -5228.9009 97.9792 -399.6566
v  -5265.9629 97.9792 -399.6566
v  -5265.9629 97.9792 -338.4689
v  -5402.3208 93.9005 -431.4160
v  -5402.3208 93.9005 -552.2287
v  -5199.2227 0.0000 -269.9908
v  -5185.2266 0.0000 -269.9908
v  -5185.2266 93.9005 -269.9908
v  -5199.2227 93.9005 -269.9908
v  -5406.0557 93.9005 -269.9908
v  -5406.0557 0.0000 -269.9908
v  -5392.0596 0.0000 -593.4909
v  -5406.0557 0.0000 -593.4909
v  -5406.0557 93.9005 -593.4909
v  -5392.0596 93.9005 -593.4909
v  -5185.2266 93.9005 -593.4909
v  -5185.2266 0.0000 -593.4909
v  -5295.6411 0.0000 -306.3846
v  -5295.6411 0.0000 -288.1877
v  -5392.0596 0.0000 -288.1877
v  -5392.0596 0.0000 -306.3846
v  -5392.0596 0.0000 -575.2941
v  -5295.6411 0.0000 -575.2941
v  -5295.6411 97.6685 -557.0972
v  -5295.9077 93.9005 -569.7660
v  -5388.8315 93.9005 -569.7660
v  -5392.0596 97.6685 -557.0972
v  -5325.3193 97.9792 -463.8252
v  -5325.3193 97.9792 -525.0128
v  -5362.3813 97.9792 -525.0129
v  -5362.3813 97.9792 -463.8252
v  -5392.0596 97.6685 -306.3846
v  -5388.8315 93.9005 -293.0659
v  -5295.9077 93.9005 -293.0659
v  -5295.6411 97.6685 -306.3846
v  -5171.2305 0.0000 -575.2941
v  -5171.2305 93.9005 -575.2941
v  -5171.2305 93.9005 -557.0972
v  -5171.2305 93.9005 -288.1877
v  -5171.2305 0.0000 -288.1877
v  -5420.0518 0.0000 -288.1877
v  -5420.0518 93.9005 -288.1877
v  -5420.0518 93.9005 -306.3846
v  -5420.0518 93.9005 -575.2941
v  -5420.0518 0.0000 -575.2941
v  -5185.2266 0.0000 -288.1877
v  -5185.2266 0.0000 -306.3846
v  -5199.2227 0.0000 -575.2941
v  -5185.2266 0.0000 -575.2941
v  -5199.2227 0.0000 -306.3846
v  -5199.2227 0.0000 -288.1877
v  -5406.0557 0.0000 -575.2941
v  -5406.0557 0.0000 -557.0972
v  -5406.0557 0.0000 -288.1877
v  -5189.4951 93.9005 -569.7660
v  -5189.4951 93.9005 -552.2287
v  -5199.2227 97.6685 -306.3846
v  -5202.9844 93.9005 -293.0659
v  -5189.4951 93.9005 -293.0659
v  -5199.2227 97.6685 -557.0972
v  -5202.9844 93.9005 -569.7660
v  -5228.9009 97.9792 -463.8252
v  -5228.9009 97.9792 -525.0128
v  -5265.9629 97.9792 -525.0128
v  -5265.9629 97.9792 -463.8252
v  -5402.3208 93.9005 -293.0659
v  -5402.3208 93.9005 -310.6033
v  -5402.3208 93.9005 -569.7660
v  -5295.6411 97.6685 -431.7409
v  -5309.5361 78.8289 -417.8458
v  -5309.5361 78.8289 -320.2796
v  -5392.0596 97.6685 -431.7409
v  -5378.1646 78.8289 -417.8458
v  -5378.1646 78.8289 -320.2796
v  -5199.2227 97.6685 -431.7409
v  -5213.1177 78.8289 -417.8458
v  -5213.1177 78.8289 -320.2796
v  -5281.7461 78.8289 -417.8458
v  -5281.7461 78.8289 -320.2796
v  -5309.5361 78.8289 -543.2021
v  -5309.5361 78.8289 -445.6359
v  -5378.1646 78.8289 -543.2021
v  -5378.1646 78.8289 -445.6359
v  -5213.1177 78.8289 -543.2021
v  -5213.1177 78.8289 -445.6359
v  -5281.7461 78.8289 -543.2021
v  -5281.7461 78.8289 -445.6359
v  -5321.1675 78.8289 -401.3102
v  -5321.1675 78.8289 -336.8153
v  -5366.5332 78.8289 -401.3102
v  -5366.5332 78.8289 -336.8153
v  -5224.7490 78.8289 -401.3102
v  -5224.7490 78.8289 -336.8153
v  -5270.1147 78.8289 -401.3102
v  -5270.1147 78.8289 -336.8153
v  -5321.1675 78.8289 -526.6664
v  -5321.1675 78.8289 -462.1716
v  -5366.5332 78.8289 -526.6664
v  -5366.5332 78.8289 -462.1716
v  -5224.7490 78.8289 -526.6664
v  -5224.7490 78.8289 -462.1716
v  -5270.1147 78.8289 -526.6664
v  -5270.1147 78.8289 -462.1716
v  -5317.9883 89.1039 -405.8299
v  -5317.9883 89.1039 -332.2955
v  -5369.7124 89.1039 -405.8299
v  -5369.7124 89.1039 -332.2955
v  -5221.5698 89.1039 -405.8299
v  -5221.5698 89.1039 -332.2955
v  -5273.2939 89.1039 -405.8299
v  -5273.2939 89.1039 -332.2955
v  -5317.9883 89.1039 -531.1862
v  -5317.9883 89.1039 -457.6518
v  -5369.7124 89.1039 -531.1862
v  -5369.7124 89.1039 -457.6518
v  -5221.5698 89.1039 -531.1862
v  -5221.5698 89.1039 -457.6518
v  -5273.2939 89.1039 -531.1862
v  -5273.2939 89.1039 -457.6518
v  -5320.3169 94.4667 -333.9249
v  -5320.3169 94.4667 -404.2006
v  -5367.3833 94.4667 -404.2006
v  -5367.3833 94.4667 -333.9249
v  -5223.8989 94.4667 -333.9249
v  -5223.8989 94.4667 -404.2006
v  -5270.9653 94.4667 -404.2006
v  -5270.9653 94.4667 -333.9249
v  -5320.3169 94.4667 -459.2811
v  -5320.3169 94.4667 -529.5569
v  -5367.3833 94.4667 -529.5569
v  -5367.3833 94.4667 -459.2811
v  -5223.8989 94.4667 -459.2811
v  -5223.8989 94.4667 -529.5569
v  -5270.9653 94.4667 -529.5569
v  -5270.9653 94.4667 -459.2811
v  -5171.2305 0.0000 -269.9908
v  -5171.2305 93.9005 -269.9908
v  -5171.2305 93.9005 -593.4909
v  -5171.2305 0.0000 -593.4909
v  -5420.0518 93.9005 -269.9908
v  -5420.0518 0.0000 -269.9908
v  -5420.0518 0.0000 -593.4909
v  -5420.0518 93.9005 -593.4909
# 178 vertices

vn 0.0000 -1.0000 -0.0000
vn 0.2300 0.9397 0.2533
vn 0.2300 0.9397 -0.2533
vn -0.2300 0.9397 -0.2533
vn -0.2300 0.9397 0.2533
vn 0.0000 -0.7071 0.7071
vn 0.0000 0.7071 0.7071
vn 0.7071 -0.7071 -0.0000
vn 0.7071 0.7071 -0.0000
vn 0.0000 -0.7071 -0.7071
vn 0.0000 0.7071 -0.7071
vn -0.7071 -0.7071 -0.0000
vn -0.7071 0.7071 -0.0000
vn 0.1837 0.9830 -0.0000
vn -0.1751 0.9846 -0.0000
vn -0.0000 0.9902 0.1395
vn 0.0000 0.9896 -0.1440
vn -0.1017 0.9932 -0.0559
vn -0.0910 0.9949 0.0428
vn 0.0000 0.9905 0.1374
vn 0.0000 0.9892 -0.1464
vn 0.0000 1.0000 -0.0000
vn 0.1075 0.9929 0.0513
vn 0.1197 0.9906 -0.0656
vn -0.3588 0.8617 0.3588
vn -0.3588 0.8617 -0.3588
vn 0.1072 0.9942 -0.0000
vn 0.3588 0.8617 0.3588
vn 0.3588 0.8617 -0.3588
vn -0.0982 0.9952 -0.0000
vn 0.4449 0.8013 -0.3999
vn 0.4449 0.8013 0.3999
vn -0.4449 0.8013 -0.3999
vn -0.4449 0.8013 0.3999
vn 0.7072 -0.0026 -0.7070
vn 0.7072 -0.0026 0.7070
vn -0.7072 -0.0026 -0.7070
vn -0.7072 -0.0026 0.7070
vn 0.5209 0.6422 0.5623
vn 0.5209 0.6422 -0.5623
vn -0.5209 0.6422 -0.5623
vn -0.5209 0.6422 0.5623
vn 0.5774 -0.5774 0.5774
vn 0.5774 0.5774 0.5774
vn 0.5774 0.5774 -0.5774
vn 0.5774 -0.5774 -0.5774
vn -0.5774 0.5774 0.5774
vn -0.5774 -0.5774 0.5774
vn -0.5774 -0.5774 -0.5774
vn -0.5774 0.5774 -0.5774
# 50 vertex normals

vt 0.5000 0.8875 0.0000
vt 0.5000 0.5000 0.0000
vt 0.8875 0.5000 0.0000
vt 0.8875 0.8875 0.0000
vt 0.4318 0.1605 0.0000
vt 0.4318 0.4520 0.0000
vt 0.1807 0.4520 0.0000
vt 0.1807 0.1605 0.0000
vt 0.1125 0.0000 0.0000
vt 0.5000 0.0000 0.0000
vt 0.5000 1.0000 0.0000
vt 0.1125 1.0000 0.0000
vt 0.0000 0.8875 0.0000
vt 0.0000 0.5000 0.0000
vt 0.0563 0.5000 0.0000
vt 0.0563 0.8875 0.0000
vt 0.1125 0.8875 0.0000
vt 0.1125 0.5000 0.0000
vt 1.0000 0.1125 0.0000
vt 1.0000 0.5000 0.0000
vt 0.9438 0.5000 0.0000
vt 0.9438 0.1125 0.0000
vt 0.8193 0.1605 0.0000
vt 0.8193 0.4520 0.0000
vt 0.5682 0.4520 0.0000
vt 0.5682 0.1605 0.0000
vt 0.8875 0.0000 0.0000
vt 0.9438 0.0000 0.0000
vt 0.9438 1.0000 0.0000
vt 0.8875 1.0000 0.0000
vt 0.0563 1.0000 0.0000
vt 0.0563 0.0000 0.0000
vt 0.5000 0.1125 0.0000
vt 0.5000 0.0563 0.0000
vt 0.8875 0.0563 0.0000
vt 0.8875 0.1125 0.0000
vt 0.8875 0.9438 0.0000
vt 0.5000 0.9438 0.0000
vt 0.1125 0.9438 0.0000
vt 0.4318 0.5480 0.0000
vt 0.4318 0.8395 0.0000
vt 0.1807 0.8395 0.0000
vt 0.1807 0.5480 0.0000
vt 0.1125 0.1125 0.0000
vt 0.1125 0.0563 0.0000
vt 0.0000 0.1125 0.0000
vt 0.0000 0.0563 0.0000
vt 0.0563 0.0563 0.0000
vt 0.0563 0.1125 0.0000
vt 0.0563 0.9438 0.0000
vt 1.0000 0.8875 0.0000
vt 1.0000 0.9438 0.0000
vt 0.9438 0.9438 0.0000
vt 0.9438 0.8875 0.0000
vt 0.9438 0.0563 0.0000
vt 0.8193 0.5480 0.0000
vt 0.8193 0.8395 0.0000
vt 0.5682 0.8395 0.0000
vt 0.5682 0.5480 0.0000
vt 1.0000 0.0000 0.0000
vt 1.0000 1.0000 0.0000
vt 0.0000 1.0000 0.0000
vt 0.0000 0.0000 0.0000
vt 0.0000 0.9438 0.0000
vt 1.0000 0.0563 0.0000
# 65 texture coords

o Floor_2
g Floor_2
usemtl wire_115115115
s 1
f 1/1/1 2/2/1 3/3/1 4/4/1 
f 5/5/2 6/6/3 7/7/4 8/8/5 
s 2
f 9/9/6 10/10/6 11/11/7 12/12/7 
s 4
f 13/9/8 14/10/8 15/11/9 16/12/9 
s 2
f 17/9/10 18/10/10 19/11/11 20/12/11 
s 4
f 21/9/12 22/10/12 23/11/13 24/12/13 
s 1
f 25/13/8 14/14/8 26/15/1 27/16/1 
f 28/17/1 29/18/1 2/2/1 1/1/1 
f 30/19/12 22/20/12 31/21/1 32/22/1 
f 16/19/9 15/20/9 33/21/14 34/22/14 
f 35/23/2 36/24/3 37/25/4 38/26/5 
f 24/13/13 23/14/13 39/15/15 40/16/15 
s 2
f 41/27/6 42/28/6 43/29/7 44/30/7 
f 10/10/6 41/27/6 44/30/7 11/11/7 
f 12/12/7 45/31/7 46/32/6 9/9/6 
f 47/27/10 48/28/10 49/29/11 50/30/11 
f 18/10/10 47/27/10 50/30/11 19/11/11 
f 20/12/11 51/31/11 52/32/10 17/9/10 
s 1
f 53/33/1 54/34/1 55/35/1 56/36/1 
f 2/2/1 53/33/1 56/36/1 3/3/1 
f 4/4/1 57/37/1 58/38/1 1/1/1 
f 59/1/16 60/38/17 61/39/17 62/17/18 
f 63/40/2 64/41/3 65/42/4 66/43/5 
f 67/44/19 68/45/20 69/34/20 70/33/21 
s 4
f 25/27/8 71/28/8 72/29/9 73/30/9 
f 14/10/8 25/27/8 73/30/9 15/11/9 
f 16/12/9 74/31/9 75/32/8 13/9/8 
f 30/27/12 76/28/12 77/29/13 78/30/13 
f 22/10/12 30/27/12 78/30/13 23/11/13 
f 24/12/13 79/31/13 80/32/12 21/9/12 
s 1
f 13/46/8 75/47/8 81/48/1 82/49/1 
f 14/14/8 13/46/8 82/49/1 26/15/1 
f 28/17/1 83/39/1 84/50/1 27/16/1 
f 85/44/1 86/45/1 54/34/1 53/33/1 
f 29/18/1 85/44/1 53/33/1 2/2/1 
f 1/1/1 58/38/1 83/39/1 28/17/1 
f 21/51/12 80/52/12 87/53/1 88/54/1 
f 22/20/12 21/51/12 88/54/1 31/21/1 
f 56/36/1 55/35/1 89/55/1 32/22/1 
f 73/51/9 72/52/9 90/53/22 91/54/14 
f 15/20/9 73/51/9 91/54/14 33/21/14 
f 92/36/23 93/35/20 94/55/22 34/22/14 
f 95/4/24 96/37/17 60/38/17 59/1/16 
f 97/56/2 98/57/3 99/58/4 100/59/5 
f 70/33/21 69/34/20 93/35/20 92/36/23 
f 78/46/13 77/47/13 101/48/22 102/49/15 
f 23/14/13 78/46/13 102/49/15 39/15/15 
f 62/17/18 61/39/17 103/50/22 40/16/15 
s 2
f 70/33/21 104/2/22 105/2/25 106/33/26 
s 4
f 104/2/22 107/18/27 108/18/28 105/2/25 
s 2
f 107/18/27 67/44/19 109/44/29 108/18/28 
s 4
f 67/44/19 70/33/21 106/33/26 109/44/29 
s 2
f 92/36/23 110/3/30 111/3/25 112/36/26 
s 8
f 110/3/30 104/2/22 113/2/28 111/3/25 
s 16
f 104/2/22 70/33/21 114/33/29 113/2/28 
s 8
f 70/33/21 92/36/23 112/36/26 114/33/29 
s 32
f 104/2/22 59/1/16 115/1/25 116/2/26 
s 2
f 59/1/16 62/17/18 117/17/28 115/1/25 
s 8
f 62/17/18 107/18/27 118/18/29 117/17/28 
s 64
f 107/18/27 104/2/22 116/2/26 118/18/29 
s 4
f 110/3/30 95/4/24 119/4/25 120/3/26 
s 8
f 95/4/24 59/1/16 121/1/28 119/4/25 
s 128
f 59/1/16 104/2/22 122/2/29 121/1/28 
s 256
f 104/2/22 110/3/30 120/3/26 122/2/29 
s 1
f 106/33/26 105/2/25 123/2/31 124/33/32 
f 105/2/25 108/18/28 125/18/33 123/2/31 
f 108/18/28 109/44/29 126/44/34 125/18/33 
f 109/44/29 106/33/26 124/33/32 126/44/34 
f 112/36/26 111/3/25 127/3/31 128/36/32 
f 111/3/25 113/2/28 129/2/33 127/3/31 
f 113/2/28 114/33/29 130/33/34 129/2/33 
f 114/33/29 112/36/26 128/36/32 130/33/34 
f 116/2/26 115/1/25 131/1/31 132/2/32 
f 115/1/25 117/17/28 133/17/33 131/1/31 
f 117/17/28 118/18/29 134/18/34 133/17/33 
f 118/18/29 116/2/26 132/2/32 134/18/34 
f 120/3/26 119/4/25 135/4/31 136/3/32 
f 119/4/25 121/1/28 137/1/33 135/4/31 
f 121/1/28 122/2/29 138/2/34 137/1/33 
f 122/2/29 120/3/26 136/3/32 138/2/34 
s 2
f 124/33/32 123/2/31 139/2/35 140/33/36 
s 4
f 123/2/31 125/18/33 141/18/37 139/2/35 
s 2
f 125/18/33 126/44/34 142/44/38 141/18/37 
s 4
f 126/44/34 124/33/32 140/33/36 142/44/38 
s 2
f 128/36/32 127/3/31 143/3/35 144/36/36 
s 4
f 127/3/31 129/2/33 145/2/37 143/3/35 
s 2
f 129/2/33 130/33/34 146/33/38 145/2/37 
s 4
f 130/33/34 128/36/32 144/36/36 146/33/38 
s 2
f 132/2/32 131/1/31 147/1/35 148/2/36 
s 4
f 131/1/31 133/17/33 149/17/37 147/1/35 
s 2
f 133/17/33 134/18/34 150/18/38 149/17/37 
s 4
f 134/18/34 132/2/32 148/2/36 150/18/38 
s 2
f 136/3/32 135/4/31 151/4/35 152/3/36 
s 4
f 135/4/31 137/1/33 153/1/37 151/4/35 
s 2
f 137/1/33 138/2/34 154/2/38 153/1/37 
s 4
f 138/2/34 136/3/32 152/3/36 154/2/38 
s 2
f 6/6/3 5/5/2 155/33/39 156/2/40 
s 4
f 7/7/4 6/6/3 156/2/40 157/18/41 
s 2
f 8/8/5 7/7/4 157/18/41 158/44/42 
s 4
f 5/5/2 8/8/5 158/44/42 155/33/39 
s 2
f 36/24/3 35/23/2 159/36/39 160/3/40 
s 4
f 37/25/4 36/24/3 160/3/40 161/2/41 
s 2
f 38/26/5 37/25/4 161/2/41 162/33/42 
s 4
f 35/23/2 38/26/5 162/33/42 159/36/39 
s 2
f 64/41/3 63/40/2 163/2/39 164/1/40 
s 4
f 65/42/4 64/41/3 164/1/40 165/17/41 
s 2
f 66/43/5 65/42/4 165/17/41 166/18/42 
s 4
f 63/40/2 66/43/5 166/18/42 163/2/39 
s 2
f 98/57/3 97/56/2 167/3/39 168/4/40 
s 4
f 99/58/4 98/57/3 168/4/40 169/1/41 
s 2
f 100/59/5 99/58/4 169/1/41 170/2/42 
s 4
f 97/56/2 100/59/5 170/2/42 167/3/39 
s 1
f 140/33/36 139/2/35 156/2/40 155/33/39 
s 8
f 139/2/35 141/18/37 157/18/41 156/2/40 
s 1
f 141/18/37 142/44/38 158/44/42 157/18/41 
s 8
f 142/44/38 140/33/36 155/33/39 158/44/42 
s 1
f 144/36/36 143/3/35 160/3/40 159/36/39 
s 8
f 143/3/35 145/2/37 161/2/41 160/3/40 
s 1
f 145/2/37 146/33/38 162/33/42 161/2/41 
s 8
f 146/33/38 144/36/36 159/36/39 162/33/42 
s 1
f 148/2/36 147/1/35 164/1/40 163/2/39 
s 8
f 147/1/35 149/17/37 165/17/41 164/1/40 
s 1
f 149/17/37 150/18/38 166/18/42 165/17/41 
s 8
f 150/18/38 148/2/36 163/2/39 166/18/42 
s 1
f 152/3/36 151/4/35 168/4/40 167/3/39 
s 8
f 151/4/35 153/1/37 169/1/41 168/4/40 
s 1
f 153/1/37 154/2/38 170/2/42 169/1/41 
s 8
f 154/2/38 152/3/36 167/3/39 170/2/42 
s 1
f 26/15/1 29/18/1 28/17/1 27/16/1 
f 33/21/14 110/3/30 92/36/23 34/22/14 
s 2
f 42/28/6 171/60/43 172/61/44 43/29/7 
f 51/31/11 173/62/45 174/63/46 52/32/10 
s 1
f 42/32/6 41/9/6 86/45/1 81/48/1 
f 82/49/1 85/44/1 29/18/1 26/15/1 
f 52/31/10 174/62/46 71/64/8 84/50/1 
f 51/29/11 20/30/11 96/37/17 90/53/22 
f 91/54/14 95/4/24 110/3/30 33/21/14 
f 43/28/7 172/60/44 74/65/9 94/55/22 
f 31/21/1 3/3/1 56/36/1 32/22/1 
f 39/15/15 107/18/27 62/17/18 40/16/15 
s 2
f 45/31/7 175/62/47 176/63/48 46/32/6 
f 48/28/10 177/60/49 178/61/50 49/29/11 
s 1
f 48/29/10 47/30/10 57/37/1 87/53/1 
f 88/54/1 4/4/1 3/3/1 31/21/1 
f 46/28/6 176/60/48 76/65/12 89/55/1 
f 45/32/7 12/9/7 68/45/20 101/48/22 
f 102/49/15 67/44/19 107/18/27 39/15/15 
f 49/31/11 178/62/50 79/64/13 103/50/22 
f 57/37/1 47/30/10 18/11/10 58/38/1 
f 60/38/17 19/11/11 50/12/11 61/39/17 
s 4
f 71/28/8 174/60/46 173/61/45 72/29/9 
f 79/31/13 178/62/50 177/63/49 80/32/12 
s 1
f 83/39/1 17/12/10 52/31/10 84/50/1 
f 58/38/1 18/11/10 17/12/10 83/39/1 
f 80/52/12 177/61/49 48/29/10 87/53/1 
f 72/52/9 173/61/45 51/29/11 90/53/22 
f 96/37/17 20/30/11 19/11/11 60/38/17 
f 61/39/17 50/12/11 49/31/11 103/50/22 
f 71/64/8 25/13/8 27/16/1 84/50/1 
f 96/37/17 95/4/24 91/54/14 90/53/22 
f 57/37/1 4/4/1 88/54/1 87/53/1 
f 79/64/13 24/13/13 40/16/15 103/50/22 
f 54/34/1 10/10/6 9/27/6 55/35/1 
f 68/45/20 12/9/7 11/10/7 69/34/20 
s 4
f 74/31/9 172/62/44 171/63/43 75/32/8 
f 76/28/12 176/60/48 175/61/47 77/29/13 
s 1
f 75/47/8 171/63/43 42/32/6 81/48/1 
f 86/45/1 41/9/6 10/10/6 54/34/1 
f 55/35/1 9/27/6 46/28/6 89/55/1 
f 93/35/20 44/27/7 43/28/7 94/55/22 
f 69/34/20 11/10/7 44/27/7 93/35/20 
f 77/47/13 175/63/47 45/32/7 101/48/22 
f 86/45/1 85/44/1 82/49/1 81/48/1 
f 74/65/9 16/19/9 34/22/14 94/55/22 
f 76/65/12 30/19/12 32/22/1 89/55/1 
f 68/45/20 67/44/19 102/49/15 101/48/22 
# 176 polygons

